{
    "asset" : {
        "generator" : "Khronos glTF Blender I/O v1.5.17",
        "version" : "2.0"
    },
    "scene" : 0,
    "scenes" : [
        {
            "name" : "Scene",
            "nodes" : [
                0
            ]
        }
    ],
    "nodes" : [
        {
            "mesh" : 0,
            "name" : "Amoung_us",
            "translation" : [
                0.06900763511657715,
                3.433586597442627,
                0
            ]
        }
    ],
    "materials" : [
        {
            "doubleSided" : true,
            "name" : "Material.001",
            "pbrMetallicRoughness" : {
                "baseColorTexture" : {
                    "index" : 0
                },
                "metallicRoughnessTexture" : {
                    "index" : 1
                }
            }
        }
    ],
    "meshes" : [
        {
            "name" : "Mesh",
            "primitives" : [
                {
                    "attributes" : {
                        "POSITION" : 0,
                        "NORMAL" : 1,
                        "TEXCOORD_0" : 2
                    },
                    "indices" : 3,
                    "material" : 0
                }
            ]
        }
    ],
    "textures" : [
        {
            "sampler" : 0,
            "source" : 0
        },
        {
            "sampler" : 0,
            "source" : 1
        }
    ],
    "images" : [
        {
            "mimeType" : "image/png",
            "name" : "DefaultMaterial_Base_Color-DefaultMaterial_Mixed_AO",
            "uri" : "DefaultMaterial_Base_Color-DefaultMaterial_Mixed_AO.png"
        },
        {
            "mimeType" : "image/png",
            "name" : "DefaultMaterial_Metallic-DefaultMaterial_Roughness",
            "uri" : "DefaultMaterial_Metallic-DefaultMaterial_Roughness.png"
        }
    ],
    "accessors" : [
        {
            "bufferView" : 0,
            "componentType" : 5126,
            "count" : 1665,
            "max" : [
                1.364039421081543,
                1.0127620697021484,
                1.1999692916870117
            ],
            "min" : [
                -1.5020546913146973,
                -3.3368749618530273,
                -1.1999692916870117
            ],
            "type" : "VEC3"
        },
        {
            "bufferView" : 1,
            "componentType" : 5126,
            "count" : 1665,
            "type" : "VEC3"
        },
        {
            "bufferView" : 2,
            "componentType" : 5126,
            "count" : 1665,
            "type" : "VEC2"
        },
        {
            "bufferView" : 3,
            "componentType" : 5123,
            "count" : 8802,
            "type" : "SCALAR"
        }
    ],
    "bufferViews" : [
        {
            "buffer" : 0,
            "byteLength" : 19980,
            "byteOffset" : 0
        },
        {
            "buffer" : 0,
            "byteLength" : 19980,
            "byteOffset" : 19980
        },
        {
            "buffer" : 0,
            "byteLength" : 13320,
            "byteOffset" : 39960
        },
        {
            "buffer" : 0,
            "byteLength" : 17604,
            "byteOffset" : 53280
        }
    ],
    "samplers" : [
        {
            "magFilter" : 9729,
            "minFilter" : 9987
        }
    ],
    "buffers" : [
        {
            "byteLength" : 70884,
            "uri" : "untitled.bin"
        }
    ]
}
